<svg width="100" height="50" viewBox="0 0 100 50" xmlns="http://www.w3.org/2000/svg">
  <defs>
    <mask id="bb-mask">
<!--Everything starts visible-->
      <rect x="0" y="0" width="100" height="50" fill="white"/>
<!--Black = cut-out areas (slots)-->
<!--Vertically centered slots-->
      <rect x="3" y="12" width="12" height="2" rx="1" fill="black"/>
      <rect x="3" y="18" width="12" height="2" rx="1" fill="black"/>
      <rect x="3" y="24" width="12" height="2" rx="1" fill="black"/>
      <rect x="3" y="30" width="12" height="2" rx="1" fill="black"/>
      <rect x="3" y="36" width="12" height="2" rx="1" fill="black"/>
      <rect x="85" y="12" width="12" height="2" rx="1" fill="black"/>
      <rect x="85" y="18" width="12" height="2" rx="1" fill="black"/>
      <rect x="85" y="24" width="12" height="2" rx="1" fill="black"/>
      <rect x="85" y="30" width="12" height="2" rx="1" fill="black"/>
      <rect x="85" y="36" width="12" height="2" rx="1" fill="black"/>
    </mask>
  </defs>
<!--ALL COLOR comes from currentColor-->
  <g fill="currentColor" mask="url(#bb-mask)">
<!--Left cup-->
    <rect x="0" y="5" width="18" height="40" rx="3"/>
<!--Left chamfer-->
    <path d="M20 10 L28 10 L32 14 L32 36 L28 40 L20 40 Z"/>
<!--Middle block-->
    <rect x="34" y="14" width="32" height="22" rx="2"/>
<!--Right chamfer-->
    <path d="M80 10 L72 10 L68 14 L68 36 L72 40 L80 40 Z"/>
<!--Right cup-->
    <rect x="82" y="5" width="18" height="40" rx="3"/>
  </g>
</svg>
